<svg xmlns="http://www.w3.org/2000/svg" viewBox="0 0 56.62 56.62"><defs><style>.cls-1{fill:#231815;}</style></defs><title>icon_o</title><g id="Layer_2" data-name="Layer 2"><g id="Layer_1-2" data-name="Layer 1"><path class="cls-1" d="M46.28,7.92a.28.28,0,0,0,.11-.07A.35.35,0,0,0,46.28,7.92Z"/><path class="cls-1" d="M34.91,1.16l.17,0C35,1.12,34.93,1.13,34.91,1.16Z"/><path class="cls-1" d="M51,14.11h0l.26.47Z"/><path class="cls-1" d="M7.88,8.71,8,8.56A.64.64,0,0,0,7.88,8.71Z"/><path class="cls-1" d="M23.16.69A.47.47,0,0,1,23,.84C23.06.82,23.15.78,23.16.69Z"/><path class="cls-1" d="M50.32,18.83a2.77,2.77,0,0,0,.1-.26A.23.23,0,0,0,50.32,18.83Z"/><path class="cls-1" d="M52.77,25.55l0,0S52.79,25.53,52.77,25.55Z"/><path class="cls-1" d="M53.09,22.59a1,1,0,0,0-.13-.18C53,22.49,53,22.6,53.09,22.59Z"/><path class="cls-1" d="M52.89,22.32l.07.09C52.94,22.35,52.92,22.31,52.89,22.32Z"/><path class="cls-1" d="M56.09,29.12a1.25,1.25,0,0,0-.23-.66Z"/><path class="cls-1" d="M1,33.88l-.09,0S.94,33.89,1,33.88Z"/><path class="cls-1" d="M54.45,28.76l0-.15A.28.28,0,0,0,54.45,28.76Z"/><path class="cls-1" d="M48.16,15.8c-.26-.07-.28-.53-.43-.43C47.86,15.53,47.9,15.86,48.16,15.8Z"/><path class="cls-1" d="M9.19,36.49l.06.1A.29.29,0,0,0,9.19,36.49Z"/><path class="cls-1" d="M54.45,28.76l-.06.18.1-.05A.2.2,0,0,1,54.45,28.76Z"/><path class="cls-1" d="M18.7,54.5h0Z"/><path class="cls-1" d="M20,55.31l-.32-.05A.45.45,0,0,0,20,55.31Z"/><path class="cls-1" d="M55.86,28.46l-.12-.37A1,1,0,0,0,55.86,28.46Z"/><path class="cls-1" d="M36.13,55.39l-.13.06A.2.2,0,0,0,36.13,55.39Z"/><path class="cls-1" d="M24.28.63l.13,0C24.41.6,24.4.57,24.28.63Z"/><polygon class="cls-1" points="16.81 8.64 16.81 8.64 16.81 8.64 16.81 8.64"/><path class="cls-1" d="M17.1,8.19c-.15,0-.26.27-.29.45A.63.63,0,0,0,17.1,8.19Z"/><path class="cls-1" d="M15.9,9.1h0Z"/><polygon class="cls-1" points="24.77 5.85 24.77 5.83 24.77 5.85 24.77 5.85"/><path class="cls-1" d="M23,6.3a.25.25,0,0,0-.15,0A.25.25,0,0,0,23,6.3Z"/><polygon class="cls-1" points="12.69 12.54 12.69 12.53 12.68 12.54 12.69 12.54"/><path class="cls-1" d="M8,28.41a9,9,0,0,1-.11-1.31l-.09-1.43c0-.48.06-1,.11-1.42L8,23.57,8.14,23A2.33,2.33,0,0,1,8,21.44l.5.09v-.46c.21-.12,0,.35.27.11l-.24-.26c.18,0,.5-1,.59-.2a12.6,12.6,0,0,1,.64-1.57c.18-.33-.29-.38,0-.7.17,0,0,.18.2.23.84-.94-.17-1.74.64-2.67v.12c0-.25.21-.57.17-.61-.53-.16.1.33-.34.48-.35-.26,0-.53-.24-.69.3-.14.2-.41.33-.63.48-.19.7-.8,1.15-.85,0-.24-.13-.69.17-1,.47,0,.19.27.58,0l-.14-.23c.28-.24.29-.15.37-.06.27-.27,0-.5.43-.71l0,.36a2.68,2.68,0,0,1,.72-.7c.09.12-.07.24-.2.31.45.1.23-.43.37-.5-.11,0-.4.15-.44-.15.22-.13.17-.62.5-.52L14,11c.26-.49,0-.44.52-.74,0,0,0,.07.06.12.11-.48.69-.55,1.15-.86l-.05.11c.14-.2.11-.46.22-.52-.34.08-.32,0-.48-.22.57.07.27-.78,1-1a.23.23,0,0,1-.24.34c0,.49.19.79,0,1.19.15-.24.39-.43.43-.25l-.14-.37c.13-.09.25-.14.35-.2-.07-.25-.5-.18-.26-.51s.4.23.37,0c.41-.44,0-.5.54-.68,0,.06-.1.18-.16.17.42-.09.85-.53,1.17-.16,0,.12.05.26-.1.28l0-.06c-.23.49.29-.24.36.2-.15-.22.38-.41.62-.47l-.19-.23c.4-1.16.2.54.89.09.4-.38-.22,0,0-.32.35-.07.57.13,1-.16.18.06.5.1.63.4.24-.24.91-.17,1-.5-.59-.14-.4.47-1.1.27l.06-.36a3.45,3.45,0,0,1,1.21-.39.19.19,0,0,1-.1-.19c.56-.27.67-.63,1.28-.69.14.27-.21.31-.46.4.43.14.39-.13,1-.11.08.25-.4,0-.42.31.21-.08.43-.12.64-.19a.09.09,0,0,0,0,0c0-.43.5,0,.88-.22,1-.16,1-.7,1.57-1.08q.24.16.15.33c-.25-.18-.2,0-.27.08.33-.06.74.39.56.57.51-.15-.19-.22.12-.37h.71c-.08-.22-.34-.25,0-.44a2.25,2.25,0,0,1,.89,0c-.06.11.12.34-.19.31.2.09.5.12.63-.09-.44-.22.75-.15.44-.5l.44.22c-.1,0-.12.13-.27.08.1.34.37-.07.54-.1s.56.18.58.3c.15-.06.49.06.53.24.22,0,0-.21.12-.31L33,5c0,.18,0,.69-.15.75.3-.13.2-.52.6-.44-.3.29.46.4.05.73a1.47,1.47,0,0,0,1.16.46c.29-.21-.33-.25-.24-.52,1,.15,1.32-.61,2-.2l-.17-.14a1.29,1.29,0,0,0,.8-.11c-.25.31.19,1.07.92,1.32.14-.14-.26-.51,0-.72l.5.19s0,.07-.14.08c.49.1.6.81.91.49l.19.67-.07-.28c.14-.12.65,0,.77.06a.88.88,0,0,1,.79.7c0-.18,0-.59.36-.41-.31.49.66.65.48.89.15.09.29.43.44.24l-.23.28c.32-.39.81,0,1.26.23-.52.47.46.27.23.89.36-.3.74.43,1.07.19.29.24,0,.53-.07.7h.25c0,.27.47.77.61,1.18h.56l-.05.23c.12,0,.38.16.36-.08l.12.17c.35-.29.3.13.72.32a.14.14,0,0,1-.2.14c.12.17-.11.24-.16.43,0-.2,1.08.1.9-.48.12-.15.43,0,.49.26l-.24.34.49-.05c.25.23.12.5.24.74-.19-.21-1,0-.57.51a2.08,2.08,0,0,0-.73-.37c.07.13.08.2-.18.13.41.34.3,0,.65.38-.31.18-.31.36-.19.81l0-.43h.11a.27.27,0,0,1,.09-.29c.06.08.69.27.55.46.2-.76.86.57,1,.1.12,0,.34.31.2.44-.47-.25-.18.49-.44.55.18.09,0-.43.29-.31a.78.78,0,0,1,0,.68l-.1-.07,0,.44c.19,0,.1-.49.34-.2,0,.13.23.42.09.48-.3-.05-.54.21-.73,0,.14.22.53.94.69.5l.13.28c0-.23.06-.86.38-.3l-.07,0,.44.29-.08.25c.08,0,.19,0,.24.15s-.07.25-.21.29c.18.44.34.34.46.36.11.24.08.36-.16.32.07.36.34.94.24,1.23.28.43,0-.12.35.09-.51.59.2,1.61.41,2.39.51-.32.1.2.62.26-.2-.14-.31.83-.57.16l.12.41c-.26.33-.33-.65-.67-.15.08.45.73.67.61,1.25-.4-.14.18.42-.27.32-.14-.1-.12-.26-.17-.41l-.07.11c0,1,.49.25.79.77.08.64-.29.52-.47.56a.73.73,0,0,0,.12.58.38.38,0,0,1,.46-.56c-.43.3,0,.95.2,1.13.42-.93,0-.63.45-1.54-.15-.11-.54-.06-.41-.59.22.31.22-.05.28-.15-.21.13-.11-.35-.25-.5.17-.17.58.26.59-.29l-.55,0c0-.22.41,0,.21-.39.32.2.42-.14.6.46.35-.79-.42-1.09-.69-1.61,0,.06.11,0,.15.1-.16-.1-.17-.32-.24-.47,0-.39.31.24.42.12a5.87,5.87,0,0,0-.16-.6l0,0c-.11-.14-.2-.28-.08-.36.21.13.4.16.57.25l-.52-.54c.19,0,.16-.6.4-.18L53,20.56l.33-.18c-.13-.21-.2-.2-.17.09,0-.36-1.1-1.19-.35-1.27-.57-.61-.48-.94-1.07-1.69.62.51,0-.92.51-.3-.05-.47-.45-.39-.66-.67,0-.37.38-.4.66-.13l-.34-.31.07,0-.34-.24c0-.44.3-.25.14-.63l-.33.08,0-.32c-.08.16-.26,0-.43-.25l.06,0-.24-.28c.35.2-.11-.31.18-.29a3.8,3.8,0,0,0-.5-.72l-.13.2c-.54-.5.27-.21-.06-.7l-.18.17c-.16-.92-1.05-1-1.2-1.66.26.25.43,0,.37,0a4.79,4.79,0,0,0-1.54-1.27,1,1,0,0,0-.09-1.06c-.31-.29-.4-.29-.64-.24-.2-.38-.91-.73-.75-.95-.21.1-.24-.27-.53-.29l0-.11-.14.21c-.19-.91-1.15-.48-1.43-1.32l.14,0-.3-.1c0-.12.16-.1.26-.21a9.58,9.58,0,0,0-1.16-.85l.13.31c-.27-.14-.57,0-.78-.35.69,0-.4-.26-.33-.56l.31.08c-.37-.2-.37-.2-.47,0-.51-.2-.08-.64-.66-.63a3.14,3.14,0,0,1,.31.18c0,.19-.29.23-.51.13,0-.06-.13-.24.05-.19-.43-.1-1-.49-1.17-.49-.17-.17,0-.3.11-.31-.93-.18-.35-.25-1.29-.39L38.93,3l-.37,0-.31-.44.08.23a2.22,2.22,0,0,1-.81-.25l.21-.16c-.85-.18-.83-.69-1.72-.6,0-.06.1-.09.17-.1-.83.13-.47-.52-1.31-.31.06-.06,0-.17,0-.22l-.37,0,.08-.27-.36.35L34.1,1l-.16.11c-.27-.6-.87-.27-1.33-.76l0,.37a1.93,1.93,0,0,1-1.06.1A6.85,6.85,0,0,1,30.47.56,4.57,4.57,0,0,0,28.1.32l0-.29L27.48.4c-.36-.21.2-.26.08-.4-.69.19-.27.44-1.07.56-.43-.17.13-.22.32-.33a10.84,10.84,0,0,1-2.4.42s0,.09,0,.1c-.48.22-1.17.15-1.7.34,0-.14.11-.19.24-.25-.2,0-.49,0-.62.18l.15-.29c-.44.05-1.19.48-1.36.22.08.1.12.31-.25.39-.33-.39-.9.5-1.54.47,0-.12.44-.29.32-.25-.32,0-.51.28-.71.5l0-.2a13.48,13.48,0,0,0-1.21.74c-.37-.32-1.15.62-1.21.29-.45.2.47,0-.08.31-.23-.09-.47.33-.58.06l0-.06-.39.22.12-.37a.76.76,0,0,0-.33.81c-.38.05-.75.42-1,.29L14.39,4a3,3,0,0,1-1.29.45,1.21,1.21,0,0,0-.95.68c-.07,0-.11-.06,0-.13l-.52.37V5.13L11,6,10.9,5.9A16.9,16.9,0,0,0,9,7.73L9,7.59c-.55.83-.75.58-1.13,1.21a.13.13,0,0,1,0-.09l-.43.48V9c-.09.55-1.22.77-.83.71-.05.3-.2.78-.11,1-.41.57-.25,0-.61.3s-.17.61-.68,1.1L5.1,12c-.15.29-.17.52-.38.92v-.15c-.12.78-.85.57-.59,1.37-.28.2-.44.77-.69.61-.22.92-.48,1.58-.71,2.45-.49,0,0,.19-.48.61l.25,0a13.74,13.74,0,0,1-.93,1.83,7.68,7.68,0,0,0-.75,2l-.26,0,.2.34c-.19.74-.37,1.6-.54,2.44A17.32,17.32,0,0,0,0,26.67a4.68,4.68,0,0,1,.32,1.64l0-.06a28.5,28.5,0,0,1,.38,3.44c-.12-.06-.18.07-.27-.05.32.24.12.69.15,1l.15-.33a.88.88,0,0,1,0,1,5.15,5.15,0,0,0,.37.48s0,.1-.08.11l.16.07-.26.35c.1.12.36.79.73.92-.1.08-.06.59-.21.23a13.88,13.88,0,0,0,.5,1.92V37c.23-.12.58.38.57.7-.33-.3-.35.1-.46.33.22.2.13-.3.31-.22a2.18,2.18,0,0,1,.57,1.09l-.18-.15c.27.38,0,.75.18,1.15.36.28.32.63.68.36.33.48-.17.34-.13.53a.93.93,0,0,1,.37.55.75.75,0,0,1,.07.58c.72-.05.63,1.47,1.15,1.29v.58a.6.6,0,0,1,.73.1c.09.38-.17.46-.22.64l.58-.12c.73,2.1,3,3.83,4.47,5.69.93.52,2.06,1.18,3.08,1.83h-.15l1,.75-.62-.66a2.56,2.56,0,0,1,.69.24,10.45,10.45,0,0,0,1.84,1.3,11.61,11.61,0,0,0,1.11.57,6.11,6.11,0,0,0,1.2.34c1.19-.22.48.76,1.58.68-.1,0-.15.1-.25.13a13.58,13.58,0,0,0,2.85,0c-.25.59.69.13.54.42l.13-.23c.21.18.76.32.66.49l.52-.24v.26c.32,0,.82.1,1.28.15s.88.14,1,.41c.81-.15,1.82-.14,2.89-.24l1.62-.06c.54,0,1.07-.1,1.56-.15a2.88,2.88,0,0,1,1.26-.44,5.62,5.62,0,0,0,.53.19c.43-.21.81-.7,1.27-.62a.08.08,0,0,1,0,.09c.44-.18.92-.12,1.25-.53.48-.16,1-.18.95.15-.12-.5,1.06-.32,1.06-.32l.29-.09a5,5,0,0,0,.8-.31l1.23-.54A11.14,11.14,0,0,0,43.3,53,26.07,26.07,0,0,0,51,46.73a24.37,24.37,0,0,0,5.09-9.82,16.65,16.65,0,0,0,.43-2.4,10.79,10.79,0,0,0,.12-2.16,14,14,0,0,0-.13-1.82,8.75,8.75,0,0,0-.39-1.41c-.24-.22-.37-.79-.68-.58-.07-.43.38-.63.13-.71-.19.58-.64-.18-1,.38l0-.36c-.17-.07.18.49-.14.39l.46.11a.8.8,0,0,1-.35.54c.17.28.79.49.48,1.13l0-.18c0,.54-.31.3-.4.41v-.12c-.09.14-.16.28-.26.42.19-.32-.17-.9-.16-.61-.16.6.12-.15.16.32,0,.29-.24.18-.38.16l-.06.51c-.21-.05.06-.34-.19-.16l.13.67c-.56,0,.15.74-.4.94-.06-.47-.19,0-.35-.09a8.48,8.48,0,0,1-.2,1.1c-.1.08-.09-.32-.11-.16-.19.17,0,.37,0,.48s-.2.81-.55.68c-.43.65.4.44,0,1-.24,0,.13-.54-.19-.32l-.17.7c-.08-.09-.29-.24-.15-.48-.92,1.76-2.4,2.16-2.92,3.76-.35.07-.06-.24-.13-.46-.35,1.19-1.32,1.17-1.89,2l.16.14a7.72,7.72,0,0,0-1.73,1.5,7.53,7.53,0,0,1-1.74,1.59h.24c0,.29-.26.54-.38.79-.1,0-.17-.47-.44-.1.11,0,.31-.07.34.05A12.53,12.53,0,0,0,42,45.1c-.44.23-.88.55-1.38.82l-1.54.82c-.54.24-1.08.44-1.59.61-2.61,1.37-5.83,1.64-8.64,1.76.43,0,.26.5-.08.4-.87-1-1.58.09-2.44-.62-1.71.06-2.94-1-4.58-.85l0-.25c-.17-.19-.29,0-.52-.1l0-.06a3.08,3.08,0,0,0-.84-.28,1.77,1.77,0,0,1-.63-.29l-.14.25c-.32-.13-.06-.28-.45-.28l.07-.13-.49.07c.14-.22-.08-.32-.33-.43s-.55-.24-.61-.41a4.31,4.31,0,0,1-1.74-.89c.06-.29-.6-.77-.92-1.19l-1.36-1.12a14,14,0,0,1-1.31-1.47l-.24.23a2.72,2.72,0,0,1-.24-.24c.06,0,.06-.1.12-.08.14-.44-.55-.56-.53-.91-.14.31.1.21.21.37,0,.32-.37.3-.46-.1l.06,0-.3-.1c.19-.18.15-.43.34-.6-.38-.41-.68-.76-1-1.1a3.34,3.34,0,0,1-.85-1.27c.3,0-.43-.71.12-.72-.47-.53-.31.28-.77.14-.07-.18-.29-.31-.14-.41s.21-.27.32-.14A3.3,3.3,0,0,1,9,36.08s.12,0,.17.05c-.57-.79-.3-1.65-.78-2.36-.19,0,0,.34-.16.33-.56-.73.13-.81-.32-1.51l.28.1c-.22-.2-.48-.26-.36-.71.27-.13.3.3.49.46-.08-.27-.24-1-.47-.71-.15-.32.09-.49.14-.68-.07,0-.14.35-.31.17a13.31,13.31,0,0,0,0-1.77c.08,0,.18-.05.22,0C7.43,29,8.08,29,8,28.41Z"/><path class="cls-1" d="M25,5.86h-.25a.24.24,0,0,1-.08.23Z"/><path class="cls-1" d="M14.58,10.37a.43.43,0,0,0,0,.11A.08.08,0,0,0,14.58,10.37Z"/><path class="cls-1" d="M12.9,12.63c.08-.19-.09-.11-.21-.09A.26.26,0,0,0,12.9,12.63Z"/><path class="cls-1" d="M31.58,4.94a.13.13,0,0,0-.08.12A.13.13,0,0,0,31.58,4.94Z"/><path class="cls-1" d="M47,14.12s0,0,0-.08A.12.12,0,0,0,47,14.12Z"/><path class="cls-1" d="M46.76,13a.52.52,0,0,0-.17-.13A.39.39,0,0,0,46.76,13Z"/><path class="cls-1" d="M27.1,4.94a.31.31,0,0,0-.19.11A.29.29,0,0,0,27.1,4.94Z"/><path class="cls-1" d="M46.4,12.77l-.16-.21,0,0Z"/><path class="cls-1" d="M47.18,14.4a1.56,1.56,0,0,1-.16-.28A.3.3,0,0,0,47.18,14.4Z"/><path class="cls-1" d="M38.26,6.41h0C38,6.43,38.14,6.44,38.26,6.41Z"/><polygon class="cls-1" points="45.27 12.27 45.25 12.23 45.15 12.23 45.27 12.27"/><path class="cls-1" d="M47.73,15.37a.18.18,0,0,0-.11-.08l.05.14A.17.17,0,0,1,47.73,15.37Z"/><path class="cls-1" d="M41.47,8.68a.47.47,0,0,0,.22-.15C41.62,8.49,41.54,8.5,41.47,8.68Z"/></g></g></svg>