<svg xmlns="http://www.w3.org/2000/svg" viewBox="0 0 58.96 57.73"><defs><style>.cls-1{fill:#231815;}</style></defs><title>icon_x_1</title><g id="Layer_2" data-name="Layer 2"><g id="Layer_1-2" data-name="Layer 1"><path class="cls-1" d="M14.3,33.05c-.05,0,0,.06,0,0Z"/><path class="cls-1" d="M29.67,15.61s0,0,0,0-.24-.28-.32-.39Z"/><path class="cls-1" d="M33.19,13.86l.05,0C33.16,13.8,33.08,13.71,33.19,13.86Z"/><path class="cls-1" d="M24.91,23s0,.06,0,.12S24.9,23,24.91,23Z"/><path class="cls-1" d="M10.22,38.64v0l-.11-.06Z"/><path class="cls-1" d="M10,38.35a.28.28,0,0,1,.19.27c.26.13.33.08.31-.08C10.31,38.33,10.22,38.48,10,38.35Z"/><path class="cls-1" d="M2.05,48,2,47.91S2,48,2.05,48Z"/><path class="cls-1" d="M35.89,33.47a.28.28,0,0,0,0,.09S35.91,33.51,35.89,33.47Z"/><path class="cls-1" d="M3.66,46.85l-.34-.36A4.25,4.25,0,0,0,3.66,46.85Z"/><path class="cls-1" d="M29.36,15.2l-.12-.15Z"/><path class="cls-1" d="M35.85,11.64a2.68,2.68,0,0,0,.28.25h0Z"/><path class="cls-1" d="M53.65,4.86l-.14-.13.2.3A.35.35,0,0,0,53.65,4.86Z"/><path class="cls-1" d="M40.7,9.8l-.11-.13c-.17-.06-.35.07-.53.27l.41.44Z"/><path class="cls-1" d="M54.27,16.06l-1.21-.5c.75-1.54,2.14-1.21,2.43-2.88l.13.24C56,13,54.12,11,58,11.74l.09.09c0-.07-.13-.24.2-.12l-.79-.26c-.06-.37-.32-.93-.16-1.2a1.74,1.74,0,0,1,.47.34l.39-.68.72.39c-.14-.46-1.38-1.55-.29-1.34-1-.64-.27-.7-.74-1.06.12.08.32.18.5.28a1.88,1.88,0,0,0,.13-1.61,25.94,25.94,0,0,1-3.85-1.28c.58-.14,0-.19-.35-.39l.18.22c-.42,0-.93-.49-1.18-.52a1,1,0,0,0,.15.13l-.06-.08a.93.93,0,0,1,.2.21c.11.11.19.21.1.24l0-.07c0,.17-.26.24-.36.28l-.43-.43c.65,1-2.33-.15-2.58,0-.75-.32-.35.62-.9.63-.57.3-.84-.41-1.42-.56-.54,0,.55.45.47.58l-.92-.26c.14-.24-.22-.4-.42-.53-.36.21-1.58-.12-.82.81-.79,0-1.13-.36-1.34-.24a2.2,2.2,0,0,1,.64.3c-.53-.22,0,.17.16.19.14.6-2.76-.34-1.87.64l-.17-.17A10.8,10.8,0,0,1,45.37,8.2L45,8l.14.47A1.16,1.16,0,0,1,44.54,8c.05.59-.7.58-1.12.81l2.24,1.56c-.71-.17-2.09-.57-1.53.1L43.32,10c-1.76-.67.15.91-.43.76l-1-.42.28-.26a7.18,7.18,0,0,1-1.63-.43l0,0a.31.31,0,0,1,.13.08l0,.05c.31.38.41.76.19.93s-.07.9-1.24.6l.6.82-.75-.1-.56-.56c.35-.29.74-1.11,1.12-1.55l-.25-.26c-.24.24-.27.77-.49.87a2.22,2.22,0,0,1-1.22-.94l.41.7c-.75.88-.73.91-2.22,1.12l.35.21c0,.34,0,.67-.51.25a2.72,2.72,0,0,1-2.54.21l.6.74c-.15.07-1.32-.78-.44.21l.07.52c-.2.1.09.57-.46.36h0l-.12,0,.06,0c-.63,0,.6.6-.16.6-.6-.36.71,1,.37,1l-1.14-.77c-.89-.21,0,.81-.47,1.3a4,4,0,0,1-2.08-1.69c.67,1.09.48.67.61,1.37a2.48,2.48,0,0,1-.71-.81c-.67-.17.17.49,0,.65a21.46,21.46,0,0,1,1.63,2l.28.14c.16.56.11,1-.46.84l-.34-.35-.07.42-.45-.42-.22.49.16.07c0,.14-.15.57-.53.5L29.44,19c-1.2-.32-.57,1-1,1.64L28,20.09c-.67-.31.71.81.25.78l-.61-.6c.61,1-.41.07-.84-.11l.85.74-.4.07c-.53,0-1.17-.84-1.55-1.3l.45.81-.74-.67c.68,1-.26,0-.06.67-.28-.25-.38-.46-.57-.49l.61,1.37-.21-.67,1,1.06c.55,1-.43.21-.31.67L25.69,22c0,.53-.48.11-.87,0,.24.14.6.35.62.6s-.4-.32-.6-.36c.67.71.83,1.27.33,1.13a2.46,2.46,0,0,1-.24-.27c.07.15.22.35,0,.27l-.72-.81.57.88c-.31-.1.09.6-.41.07l-.09-.21-1,.6-.62-.6c.76.91-.74.11.33,1.13-.72-.43-.18,1-1.27-.29-.6.43.25,1.84-.94,1.89-1.23-.78-1.51.15-2,.45a27,27,0,0,1-1,3.2c-1.88-.91-.72,1.68-2,1.41l.42.7c-1.23-.54-.68,1.07-2,.69a1.59,1.59,0,0,1,.13.54s.19.08.55.42c-.38-.11-.35.48-1-.24l0-.11c-.69-.72-.09.75-.86.29l.84.67-.39.14L13.3,34c.54,2.81-2.37.93-1.9,3.52-.69-1,.22.65-.7-.24-1.4-.86-.25.74-.17,1.26a1,1,0,0,1,.15.18l-.49.28c-.91-1.36.66,1.22-.09,0-1.86.16-2.3,2.33-3.85,3.1l.34.25c-.35.23-.36,1-1,.71s.25,1.23.21,1.37c.26.75-1,0-.81-.09-.12.41.67,1.69-.14,1.61-1.09-.84,0,1.94-1.14.86l.08.1c-1.23-.3-.37,1.44-1.56,1.25L2.05,48l2.28,4.32,3.92,3.33,3.83,2.06,1.76-3,3.06-.76,4.27-5-.48-1.15c2.34.52,1.87-2.3,3.88-2.27l-.69-.72c.24-.32.66.13.85.19,2.43-2.75,4.15-6.35,7.37-7.79.69.25,1.1-.71,1.77-.39a3.3,3.3,0,0,1,1.55-3.08l0,.1.23-.49a.9.9,0,0,1,.2.19c-.23-1,1-1,1.77-1.28l.05.11c3-2.75,4.35-6.73,8.18-8.6,2.48-.17,2.43-3.3,4.91-3.86C51.78,20.26,54.33,16.66,54.27,16.06Z"/><path class="cls-1" d="M57.85,10.59h0C58.14,10.9,58.05,10.77,57.85,10.59Z"/><path class="cls-1" d="M43.39,8.83h0l-.49-.34Z"/><path class="cls-1" d="M47.22,4.52c-.28.09-.22.17-.07.26A.19.19,0,0,0,47.22,4.52Z"/><path class="cls-1" d="M58.78,8.53c.12-.07-.09-.21-.35-.35l-.11.22C58.44,8.41,58.65,8.52,58.78,8.53Z"/><path class="cls-1" d="M54.36,4.9l-.21-.27C54.15,4.74,54.24,4.83,54.36,4.9Z"/><path class="cls-1" d="M24.68,12.31c0-.05-.06,0,0,0Z"/><path class="cls-1" d="M42.12,27.68s0,0,0,0,.28-.24.39-.32Z"/><path class="cls-1" d="M43.87,31.2l0,.05C43.94,31.17,44,31.08,43.87,31.2Z"/><path class="cls-1" d="M34.72,22.92s-.06,0-.12,0A.19.19,0,0,1,34.72,22.92Z"/><path class="cls-1" d="M19.09,8.23h0l.06-.12Z"/><path class="cls-1" d="M19.38,8c0,.16-.21.18-.27.19-.13.25-.08.33.08.31C19.41,8.32,19.25,8.23,19.38,8Z"/><path class="cls-1" d="M9.71.06,9.83,0A.67.67,0,0,0,9.71.06Z"/><path class="cls-1" d="M24.26,33.89l-.09,0S24.22,33.92,24.26,33.89Z"/><path class="cls-1" d="M10.88,1.66l.36-.33A4.4,4.4,0,0,0,10.88,1.66Z"/><path class="cls-1" d="M42.53,27.37l.15-.12Z"/><path class="cls-1" d="M46.09,33.86a2.68,2.68,0,0,0-.25.28h0Z"/><path class="cls-1" d="M52.87,51.66l.13-.14-.3.19A.25.25,0,0,0,52.87,51.66Z"/><path class="cls-1" d="M47.93,38.71l.13-.11c.06-.18-.06-.35-.27-.53l-.44.41Z"/><path class="cls-1" d="M41.67,52.28l.5-1.21c1.54.75,1.22,2.14,2.89,2.43l-.24.13c-.06.34,1.94-1.5,1.17,2.42l-.09.09c.07,0,.24-.14.13.2l.25-.8c.38,0,.93-.31,1.2-.15a1.74,1.74,0,0,1-.34.47l.68.39-.39.72c.46-.14,1.55-1.38,1.34-.3.65-1,.7-.26,1.06-.73-.08.12-.18.32-.28.5a1.88,1.88,0,0,0,1.61.13,25.56,25.56,0,0,1,1.28-3.85c.15.58.2,0,.4-.35l-.23.18c0-.42.49-.93.52-1.18a1,1,0,0,0-.13.15l.08-.06a.93.93,0,0,1-.21.2c-.11.11-.2.19-.23.1l.06,0c-.16,0-.24-.25-.27-.36l.42-.42c-1,.65.15-2.33,0-2.58.32-.76-.62-.36-.63-.9-.29-.57.41-.84.56-1.42,0-.54-.44.55-.58.47l.26-.92c.24.14.4-.22.53-.42-.21-.36.13-1.59-.81-.82,0-.79.36-1.13.24-1.34a2,2,0,0,1-.3.63c.22-.53-.17,0-.19.17-.6.14.35-2.76-.64-1.88l.17-.17a10.86,10.86,0,0,1-1.88,1.63l.2-.42-.46.14a1.19,1.19,0,0,1,.44-.56c-.59.06-.58-.7-.81-1.11l-1.55,2.24c.16-.71.56-2.09-.1-1.54l.47-.8c.67-1.76-.91.15-.76-.43l.42-1,.26.28a7.18,7.18,0,0,1,.43-1.63s0,0,0,0a.33.33,0,0,1-.07.13l-.06,0c-.38.31-.76.4-.93.19-.17-.37-.9-.07-.6-1.24l-.82.6.1-.75.56-.57a17,17,0,0,0,1.55,1.13l.27-.25c-.25-.25-.78-.27-.88-.49a2.2,2.2,0,0,1,1-1.22l-.71.4c-.88-.75-.91-.73-1.12-2.22l-.21.36c-.34,0-.67,0-.25-.51a2.73,2.73,0,0,1-.21-2.54l-.74.59c-.07-.14.78-1.31-.21-.43l-.52.06c-.1-.19-.57.1-.36-.45h0a.76.76,0,0,1,0-.11l-.05.06c0-.63-.6.6-.59-.16.35-.6-1,.71-1,.37L43,30.38c.21-.89-.81,0-1.3-.48a4,4,0,0,1,1.69-2.07c-1.09.66-.67.48-1.37.61a2.48,2.48,0,0,1,.81-.71c.17-.67-.48.17-.65,0a20.77,20.77,0,0,1-2,1.62L40,29.6c-.57.16-1,.11-.85-.46l.35-.34-.42-.07.42-.46L39,28.05l-.07.17c-.14,0-.57-.15-.49-.53l.24-.24c.32-1.2-1-.57-1.63-1l.56-.43c.32-.66-.81.72-.78.26l.6-.62c-1,.62-.07-.4.11-.83l-.74.85-.07-.41c0-.52.84-1.16,1.3-1.54l-.81.44.67-.73c-1,.68,0-.27-.67-.06.25-.28.46-.38.49-.57l-1.37.61L37,23.2,36,24.2c-1,.54-.21-.43-.66-.32l.42-.18c-.53,0-.11-.49,0-.87-.14.24-.35.6-.59.62s.31-.41.35-.6c-.71.67-1.27.83-1.13.33a2.46,2.46,0,0,1,.27-.24c-.15.07-.35.22-.27,0l.81-.71-.88.57c.11-.31-.6.09-.07-.41l.21-.09-.6-1,.6-.62c-.91.76-.1-.74-1.12.33.42-.72-1-.18.28-1.27-.42-.61-1.84.25-1.89-.95.78-1.22-.15-1.5-.45-2a27,27,0,0,1-3.2-1c.92-1.88-1.68-.72-1.41-2l-.7.41c.54-1.22-1.06-.67-.68-2a1.61,1.61,0,0,1-.55.13s-.08.19-.42.55c.11-.39-.48-.36.24-1l.11,0c.73-.68-.75-.09-.29-.85l-.67.84-.13-.39.21-.07c-2.81.53-.93-2.37-3.52-1.91,1-.68-.64.23.24-.69.86-1.4-.74-.25-1.26-.17L19,8.69l-.28-.49c1.37-.91-1.22.66,0-.09-.16-1.86-2.33-2.3-3.1-3.86l-.24.35c-.24-.35-1-.37-.72-1.06s-1.23.26-1.37.22c-.74.25,0-1,.09-.81-.4-.13-1.69.67-1.61-.14.84-1.09-1.94-.05-.86-1.15l-.1.09C11.08.52,9.34,1.38,9.53.19L9.71.06,5.4,2.34,2.06,6.25,0,10.08l3,1.76.76,3.07,5.05,4.27L10,18.69c-.52,2.35,2.3,1.88,2.27,3.89l.72-.69c.32.24-.13.66-.19.85,2.75,2.43,6.35,4.15,7.79,7.37-.24.69.71,1.1.4,1.76a3.33,3.33,0,0,1,3.07,1.55l-.1,0,.49.22a.52.52,0,0,1-.19.2c1-.22,1,1,1.28,1.78l-.1,0c2.74,3,6.72,4.35,8.59,8.18.17,2.48,3.3,2.43,3.86,4.91C37.47,49.79,41.07,52.34,41.67,52.28Z"/><path class="cls-1" d="M47.14,55.86h0C46.83,56.15,47,56.05,47.14,55.86Z"/><path class="cls-1" d="M48.9,41.4v0l.35-.5Z"/><path class="cls-1" d="M53.21,45.22C53.12,45,53,45,53,45.16A.18.18,0,0,0,53.21,45.22Z"/><path class="cls-1" d="M49.2,56.79c.07.12.21-.1.35-.35l-.22-.11C49.32,56.45,49.22,56.66,49.2,56.79Z"/><path class="cls-1" d="M52.84,52.37l.27-.21C53,52.16,52.91,52.25,52.84,52.37Z"/></g></g></svg>